<svg aria-labelledby="title desc" role="img" viewBox="0 0 200.41095890410958 132.32876712328766" xmlns="http://www.w3.org/2000/svg" style="max-height: 500px" width="200.41095890410958" height="132.32876712328766">
  <title>Mydrive logo</title>
  <desc id="desc">A steel blue cloud with an upload arrow, with the word "Mydrive" to the right in a lighter tone.</desc>
  <defs>
    <style>
      :root { --steel:#3F6C8E; --steel-dark:#345A76; --steel-light:#6E94B2; }
      .icon-fill { fill: var(--steel); }
      .icon-stroke { stroke: var(--steel-dark); stroke-width: 8; stroke-linecap:round; stroke-linejoin:round; fill:none; }
      .wordmark { fill: var(--steel-light); font-family: Inter, ui-sans-serif, system-ui, -apple-system, "Segoe UI", Roboto, "Helvetica Neue", Arial, "Noto Sans", "Apple Color Emoji", "Segoe UI Emoji"; font-weight: 700; letter-spacing: 0.5px; }
    </style>
    <linearGradient y2="1" x2="0" y1="0" x1="0" id="g1">
      <stop stop-color="#497FA3" offset="0%"/>
      <stop stop-color="#3F6C8E" offset="100%"/>
    </linearGradient>
  </defs>

  
  <g transform="translate(10,10)">
    <path stroke-linejoin="round" stroke-width="6" stroke="#345A76" fill="url(#g1)" d="M88 84H52a30 30 0 1 1 6-59 38 38 0 0 1 73 13h5a26 26 0 1 1 0 52H88z"/>
    <path stroke-width="6" stroke="#345A76" fill="#E6EEF5" d="M46 66h84a8 8 0 0 1 8 8v26a8 8 0 0 1-8 8H46a8 8 0 0 1-8-8V74a8 8 0 0 1 8-8z"/>
    <path stroke-linejoin="round" stroke-width="6" stroke="#345A76" fill="none" d="M46 66v-6a8 8 0 0 1 8-8h26l10 14"/>
    <path class="icon-stroke" d="M88 101V78"/>
    <path class="icon-stroke" d="M72 88l16-16 16 16"/>
  </g>

  
  <g transform="translate(220,94)">
    <text font-size="60" class="wordmark">
      <tspan>M</tspan><tspan font-weight="800">ydrive</tspan>
    </text>
  </g>
</svg>